<svg width="55" height="52" viewBox="0 0 55 52" fill="none" xmlns="http://www.w3.org/2000/svg">
<path d="M38.222 9.21407C37.6715 9.21407 37.1436 9.43873 36.7544 9.83863C36.3651 10.2385 36.1465 10.7809 36.1465 11.3464C36.1465 11.912 36.3651 12.4544 36.7544 12.8543C37.1436 13.2542 37.6715 13.4788 38.222 13.4788C39.2265 13.4788 40.0567 13.7859 40.6586 14.3318C41.248 14.8734 41.8001 15.8116 41.9579 17.4365C41.9851 17.7151 42.0655 17.9855 42.1945 18.2322C42.3235 18.4789 42.4985 18.6971 42.7095 18.8743C42.9205 19.0516 43.1635 19.1843 43.4245 19.2651C43.6854 19.3458 43.9593 19.373 44.2305 19.345C44.5017 19.317 44.7649 19.2344 45.005 19.1019C45.2452 18.9694 45.4575 18.7896 45.63 18.5728C45.8025 18.356 45.9317 18.1064 46.0103 17.8382C46.0889 17.5701 46.1154 17.2887 46.0881 17.01C45.8474 14.5237 44.9175 12.5235 43.419 11.1503C41.9786 9.86797 40.1275 9.17832 38.222 9.21407ZM23.7931 3.06429C22.3108 1.7952 20.5697 0.884824 18.6986 0.400551C16.8276 -0.0837222 14.8745 -0.129497 12.9839 0.266614C9.58835 0.948975 6.59133 2.87664 4.603 5.08579L4.5947 5.09858C2.42372 7.54655 0.202938 10.7281 0.0119914 15.3638V15.3724C-0.0710286 17.6498 0.244447 20.972 1.99202 23.5138L2.01693 23.5436C3.86827 26.1238 4.90187 27.6335 5.42075 29.0921C6.01434 30.7639 6.01434 32.4527 6.01434 34.9647V35.1694C6.03509 37.6003 6.53737 40.9566 7.74531 44.0102C8.9408 47.0211 10.9955 50.1515 14.3828 51.4181L14.4658 51.4479L14.5571 51.4735C16.5205 52.0109 18.4009 51.8318 19.8289 50.4628C21.0742 49.2687 21.5723 47.503 21.8546 45.972C22.1119 44.5604 22.2406 42.9184 22.3693 41.3234L22.4149 40.7221C22.5644 38.8797 22.7346 37.0544 23.0833 35.34V35.3272C24.0255 30.6231 25.3746 29.8853 25.8935 29.719C27.4294 29.3139 28.3509 29.5271 28.9486 29.8768C29.5962 30.2564 30.1939 30.9856 30.7128 32.1883C31.7838 34.6832 32.0992 38.2187 32.3898 41.494C32.6389 44.748 33.303 47.7419 34.6064 49.6823C35.2914 50.7016 36.2751 51.6057 37.6201 51.9C38.9774 52.2028 40.285 51.7891 41.4182 51.0471C45.5443 48.3389 47.9104 42.7478 48.5331 35.4594C48.8236 32.0007 49.164 30.4568 49.6663 29.2115C49.9236 28.5718 50.2474 27.9577 50.704 27.1516L51.144 26.384C51.5204 25.7443 51.9493 24.9851 52.4308 24.1066L52.4391 24.1023C53.3358 22.4476 54.8135 19.4196 54.9837 15.8714C55.1622 12.1695 53.9044 8.0967 49.6912 4.59108C45.6813 1.24751 41.9205 0.0149938 38.5374 0.198378C35.1876 0.377498 32.5102 1.92987 30.5966 3.58886L30.5302 3.64857L30.472 3.70827C28.6539 5.57623 27.886 5.81933 27.4709 5.798C26.9644 5.77668 26.0263 5.35873 23.9674 3.22209L23.8844 3.13679L23.7931 3.06429ZM4.15884 15.543C4.29167 12.3743 5.74868 10.1267 7.65814 7.97729C9.11099 6.36521 11.3359 4.94505 13.7767 4.4546C15.0561 4.18008 16.3793 4.20466 17.6482 4.52653C18.9171 4.84839 20.0993 5.4593 21.1074 6.31404C23.0584 8.33127 25.0176 9.9604 27.2924 10.0628C29.6584 10.1651 31.5762 8.59568 33.3404 6.79169C34.7808 5.55491 36.6031 4.57402 38.7533 4.4546C40.9035 4.33946 43.6847 5.07726 47.076 7.90053C50.2267 10.5234 50.9531 13.2741 50.8369 15.6624C50.7165 18.1914 49.6331 20.5071 48.8153 22.0169C48.2665 23.0221 47.7005 24.0174 47.1176 25.0022C46.636 25.8551 46.2002 26.6655 45.8307 27.5781C45.0836 29.4375 44.7017 31.5102 44.3945 35.0841C43.8175 41.8522 41.7005 45.8014 39.185 47.4519C39.0136 47.5693 38.8261 47.6598 38.6288 47.7205C38.5333 47.7419 38.4959 47.7333 38.4918 47.7333C38.4876 47.7333 38.4503 47.7248 38.3755 47.6694C38.2373 47.5533 38.1181 47.415 38.0227 47.2599C37.3586 46.2791 36.7608 44.2234 36.5284 41.1486V41.123L36.4993 40.8031C36.2336 37.7751 35.8683 33.6298 34.511 30.4696C33.7928 28.7936 32.7053 27.1644 30.9992 26.1665C29.2475 25.1429 27.1554 24.9723 24.8142 25.6035L24.781 25.6121L24.752 25.6206C21.9708 26.4522 20.0696 29.22 19.0236 34.47C18.6126 36.4701 18.4258 38.53 18.2764 40.3681L18.2349 40.9652C18.1497 42.3795 17.9959 43.7887 17.7741 45.1873C17.5251 46.5691 17.2054 47.1405 16.9896 47.3452C16.9439 47.3879 16.7156 47.631 15.7152 47.3794C13.9801 46.6885 12.5812 44.9015 11.5933 42.4024C10.7084 40.0856 10.2251 37.6275 10.1653 35.1395V34.696C10.1653 32.4271 10.1736 30.0346 9.31854 27.6335C8.5589 25.4841 7.11436 23.4584 5.37093 21.0317C4.4079 19.6243 4.08412 17.4493 4.15884 15.543Z" fill="white"/>
</svg>
