<svg width="28" height="28" viewBox="0 0 28 28" fill="none" xmlns="http://www.w3.org/2000/svg">
<rect width="28" height="28" rx="5" fill="url(#paint0_linear_2038_6)"/>
<path d="M19.5129 9.42605C19.7894 9.14976 20.1573 8.99701 20.5391 9.00004C20.9208 9.00308 21.2865 9.16165 21.559 9.4423C21.8315 9.72295 21.9894 10.1037 21.9995 10.5043C22.0096 10.9049 21.871 11.2939 21.6131 11.5892L13.7817 21.8695C13.647 22.0218 13.4845 22.1439 13.3038 22.2287C13.1232 22.3135 12.9281 22.3592 12.7302 22.3631C12.5323 22.3669 12.3357 22.3288 12.1522 22.2511C11.9686 22.1734 11.8019 22.0576 11.6619 21.9107L6.46852 16.4595C6.3239 16.318 6.20789 16.1474 6.12744 15.9579C6.04698 15.7684 6.00372 15.5638 6.00023 15.3563C5.99674 15.1488 6.0331 14.9428 6.10714 14.7504C6.18117 14.558 6.29137 14.3832 6.43116 14.2365C6.57094 14.0898 6.73745 13.9741 6.92074 13.8964C7.10404 13.8187 7.30037 13.7805 7.49803 13.7842C7.69568 13.7878 7.89061 13.8332 8.07118 13.9177C8.25175 14.0021 8.41427 14.1239 8.54903 14.2757L12.659 18.5876L19.4756 9.47137L19.5129 9.42605Z" fill="white"/>
<defs>
<linearGradient id="paint0_linear_2038_6" x1="4.18391" y1="3.21839" x2="22.046" y2="32.1839" gradientUnits="userSpaceOnUse">
<stop stop-color="#8AFBFF"/>
<stop offset="1" stop-color="#0FA3A8"/>
</linearGradient>
</defs>
</svg>
