<svg width="25" height="25" viewBox="0 0 25 25" fill="none" xmlns="http://www.w3.org/2000/svg">
<path d="M13.2813 7.29166C13.2813 7.08446 13.1989 6.88575 13.0524 6.73924C12.9059 6.59272 12.7072 6.51041 12.5 6.51041C12.2928 6.51041 12.0941 6.59272 11.9476 6.73924C11.8011 6.88575 11.7188 7.08446 11.7188 7.29166V12.5C11.7187 12.6325 11.7523 12.7627 11.8165 12.8786C11.8806 12.9945 11.9732 13.0922 12.0854 13.1625L15.2104 15.1156C15.3861 15.2256 15.5983 15.2612 15.8003 15.2147C15.9003 15.1917 15.9948 15.1492 16.0784 15.0897C16.162 15.0301 16.2331 14.9547 16.2875 14.8677C16.3419 14.7807 16.3787 14.6838 16.3957 14.5826C16.4127 14.4814 16.4096 14.3778 16.3866 14.2778C16.3636 14.1778 16.3211 14.0833 16.2616 13.9997C16.202 13.9161 16.1266 13.8451 16.0396 13.7906L13.2813 12.0667V7.29166Z" fill="#0D9A93"/>
<path fill-rule="evenodd" clip-rule="evenodd" d="M12.5003 3.38541C10.083 3.38541 7.76466 4.3457 6.05534 6.05501C4.34603 7.76433 3.38574 10.0827 3.38574 12.5C3.38574 14.9173 4.34603 17.2357 6.05534 18.945C7.76466 20.6543 10.083 21.6146 12.5003 21.6146C14.9177 21.6146 17.236 20.6543 18.9453 18.945C20.6546 17.2357 21.6149 14.9173 21.6149 12.5C21.6149 10.0827 20.6546 7.76433 18.9453 6.05501C17.236 4.3457 14.9177 3.38541 12.5003 3.38541ZM4.94824 12.5C4.94824 11.5082 5.14358 10.5262 5.52311 9.60994C5.90264 8.69368 6.45892 7.86114 7.1602 7.15987C7.86147 6.45859 8.69401 5.90231 9.61027 5.52278C10.5265 5.14325 11.5086 4.94791 12.5003 4.94791C13.4921 4.94791 14.4741 5.14325 15.3904 5.52278C16.3066 5.90231 17.1392 6.45859 17.8405 7.15987C18.5417 7.86114 19.098 8.69368 19.4775 9.60994C19.8571 10.5262 20.0524 11.5082 20.0524 12.5C20.0524 14.5029 19.2567 16.4238 17.8405 17.8401C16.4242 19.2564 14.5033 20.0521 12.5003 20.0521C10.4974 20.0521 8.57649 19.2564 7.1602 17.8401C5.74391 16.4238 4.94824 14.5029 4.94824 12.5Z" fill="#0D9A93"/>
</svg>
