<svg width="24" height="24" viewBox="0 0 24 24" fill="none" xmlns="http://www.w3.org/2000/svg">
<path d="M19.0574 19.9999C18.8716 20.0021 18.6898 19.9459 18.5376 19.8393L11.4973 15.1817L4.45696 19.8393C4.28344 19.9511 4.07807 20.0031 3.87225 19.9872C3.66643 19.9713 3.47147 19.8884 3.31718 19.7513C3.16289 19.6142 3.05775 19.4304 3.01784 19.2279C2.97792 19.0254 3.00542 18.8154 3.09614 18.63L10.6562 3.51398C10.7355 3.35923 10.856 3.22936 11.0044 3.13867C11.1528 3.04799 11.3234 3 11.4973 3C11.6712 3 11.8418 3.04799 11.9902 3.13867C12.1386 3.22936 12.259 3.35923 12.3384 3.51398L19.8984 18.63C19.9927 18.8165 20.0224 19.0288 19.9831 19.2339C19.9438 19.4391 19.8376 19.6254 19.6811 19.7638C19.5088 19.9156 19.2871 19.9996 19.0574 19.9999ZM11.4973 13.1032C11.6825 13.1047 11.8633 13.1605 12.017 13.2638L16.6287 16.3154L11.4973 6.05537L6.36588 16.3154L10.9775 13.2638C11.1313 13.1605 11.312 13.1047 11.4973 13.1032Z" fill="#128680"/>
</svg>
