<svg width="29" height="29" viewBox="0 0 29 29" fill="none" xmlns="http://www.w3.org/2000/svg">
<circle cx="14.5" cy="14.5" r="14.5" fill="#4DEAE2"/>
<path fill-rule="evenodd" clip-rule="evenodd" d="M8.85433 5.13597H11.5113C11.6194 5.13597 11.7248 5.17334 11.8137 5.24309C11.9025 5.31283 11.9705 5.41165 12.0085 5.52634L13.0399 8.63484C13.0739 8.73764 13.0824 8.84902 13.0647 8.95694L12.5476 12.0992C13.183 13.7924 14.232 14.9306 15.971 15.9515L18.7087 15.349C18.806 15.3278 18.9066 15.3378 18.9991 15.378L21.7488 16.5667C21.8494 16.6102 21.9359 16.6872 21.997 16.7876C22.0581 16.888 22.0908 17.007 22.091 17.129V20.0078C22.091 21.3138 21.0766 22.3733 19.8895 22.0801C17.7269 21.5468 13.7199 20.1901 10.9135 17.0077C8.22463 13.9595 7.32363 9.74892 7.02117 7.47337C6.84763 6.17374 7.76633 5.13597 8.85433 5.13597Z" fill="white"/>
</svg>
