<svg width="29" height="29" viewBox="0 0 29 29" fill="none" xmlns="http://www.w3.org/2000/svg">
<g clip-path="url(#clip0_28_390)">
<mask id="mask0_28_390" style="mask-type:luminance" maskUnits="userSpaceOnUse" x="0" y="0" width="29" height="29">
<path d="M0 0.3871H28.2258V28.6129H0V0.3871Z" fill="white"/>
</mask>
<g mask="url(#mask0_28_390)">
<path fill-rule="evenodd" clip-rule="evenodd" d="M28.2258 14.5C28.2258 22.2939 21.9068 28.6129 14.1129 28.6129C6.31905 28.6129 0 22.2939 0 14.5C0 6.70615 6.31905 0.3871 14.1129 0.3871C21.9068 0.3871 28.2258 6.70615 28.2258 14.5ZM14.6186 10.806C13.2465 11.3767 10.5031 12.5583 6.38844 14.3506C5.72043 14.6164 5.37035 14.8763 5.33821 15.1304C5.28411 15.5608 5.82275 15.7302 6.55427 15.9595L6.86358 16.0583C7.58451 16.2923 8.5536 16.5664 9.05696 16.577C9.51406 16.5864 10.0245 16.3982 10.5882 16.0124C14.4316 13.4172 16.4157 12.1055 16.5403 12.0773C16.6285 12.0573 16.7508 12.0314 16.8332 12.1055C16.9155 12.1784 16.9073 12.3172 16.899 12.3548C16.8449 12.5818 14.735 14.5447 13.6413 15.5608C13.3002 15.8772 13.0591 16.1018 13.0097 16.1536C12.8976 16.2673 12.7871 16.3766 12.6781 16.4817C12.0077 17.1262 11.5067 17.6107 12.7063 18.401C13.2826 18.7809 13.7436 19.0949 14.2035 19.4078C14.7056 19.75 15.2067 20.0911 15.8558 20.5168C16.0205 20.6266 16.1793 20.7363 16.3322 20.8461C16.9167 21.2636 17.4424 21.6376 18.0916 21.5788C18.4679 21.5435 18.8584 21.1895 19.0559 20.1322C19.5229 17.6319 20.4425 12.2172 20.6554 9.98505C20.6695 9.79974 20.6616 9.6134 20.6319 9.42994C20.6155 9.28147 20.5431 9.14481 20.4296 9.04772C20.2614 8.91012 20.0003 8.88072 19.8827 8.88307C19.3523 8.89248 18.5385 9.17591 14.6186 10.806Z" fill="#4DEAE2"/>
</g>
</g>
<defs>
<clipPath id="clip0_28_390">
<rect width="28.2258" height="28.2258" fill="white" transform="translate(0 0.3871)"/>
</clipPath>
</defs>
</svg>
