<svg width="29" height="29" viewBox="0 0 29 29" fill="none" xmlns="http://www.w3.org/2000/svg">
<g clip-path="url(#clip0_28_399)">
<path d="M5.75892 0.388931C2.71677 0.388931 0.227539 2.87817 0.227539 5.92031V23.0869C0.227539 26.1291 2.71677 28.6183 5.75892 28.6183H22.9255C25.9677 28.6183 28.4569 26.1291 28.4569 23.0869V5.92031C28.4569 2.87817 25.9677 0.388931 22.9255 0.388931H5.75892ZM8.92552 6.75825H14.4939C15.6504 6.75825 16.5288 6.80056 17.1251 6.89145C17.7214 6.97779 18.2815 7.16287 18.8019 7.44451C19.3651 7.74791 19.7881 8.15648 20.0668 8.66262C20.3454 9.17176 20.4866 9.75696 20.4866 10.4223C20.4866 11.1913 20.2948 11.8749 19.908 12.4749C19.525 13.0749 18.9935 13.5161 18.3177 13.8015V13.8835C19.2901 14.09 20.0701 14.5055 20.6551 15.1378C21.241 15.7709 21.5336 16.623 21.5336 17.6931C21.5336 18.4764 21.3858 19.1673 21.0891 19.7598C20.7925 20.3523 20.3954 20.8406 19.893 21.2311C19.3005 21.6967 18.6502 22.0253 17.9375 22.2243C17.2294 22.4225 16.3298 22.5215 15.2349 22.5215H8.92555V6.75828L8.92552 6.75825ZM12.8639 9.64787V12.9838H13.3622C14.0381 12.9838 14.5157 12.9769 14.7868 12.9627C15.0579 12.9484 15.34 12.8758 15.6291 12.7421C15.943 12.5942 16.1641 12.3888 16.2827 12.1282C16.4021 11.8646 16.4636 11.5602 16.4636 11.2171C16.4636 10.961 16.3984 10.7002 16.2677 10.4329C16.1378 10.1656 15.936 9.97015 15.6573 9.85076C15.3975 9.73512 15.0903 9.67415 14.7321 9.66289C14.3746 9.6516 13.8435 9.6479 13.1391 9.6479L12.8639 9.64787ZM12.8639 15.6838V19.6301H13.0774C14.1077 19.6301 14.8193 19.6224 15.2128 19.6081C15.6063 19.5939 16.0117 19.5004 16.4195 19.3232C16.7814 19.1677 17.0413 18.9399 17.208 18.6396C17.374 18.3399 17.4568 18 17.4568 17.6208C17.4568 17.1327 17.3603 16.7534 17.1613 16.4785C16.963 16.2007 16.6664 15.9943 16.2722 15.8531C16.0334 15.7593 15.7007 15.7084 15.2816 15.6979C14.8626 15.6874 14.2994 15.6838 13.5943 15.6838H12.8639Z" fill="#4DEAE2"/>
</g>
<defs>
<clipPath id="clip0_28_399">
<rect width="28.2258" height="28.2258" fill="white" transform="translate(0.225586 0.3871)"/>
</clipPath>
</defs>
</svg>
